<svg id="Layer_1" xmlns="http://www.w3.org/2000/svg" viewBox="0 0 233.8 61" enable-background="new 0 0 233.8 61"><script xmlns=""/><style>.st0{fill:#b4ccde}.st1{filter:url(#Adobe_OpacityMaskFilter)}.st2{fill:#fff}.st3{mask:url(#mask-2_2_)}.st3,.st4{fill:#005d9f}.st5{filter:url(#Adobe_OpacityMaskFilter_1_)}.st6{mask:url(#mask-4_2_);fill:#005d9f}</style><g id="Page-1"><g id="Landing-Page-1" transform="translate(-881 -858)"><g id="Case-Foundation-Logo" transform="translate(881 858)"><path id="Fill-1" class="st0" d="M68.9 59.7L70 41.3h-2.1z"/><path id="Fill-2" class="st0" d="M45.7 14.6l9.9 8h2.7z"/><path id="Fill-3" class="st0" d="M70.6 22.6H73L78.9 0z"/><path id="Fill-4" class="st0" d="M60.4 5.1l4.5 17.5h2.4z"/><path id="Fill-5" class="st0" d="M49.6 5.1l11.7 17.5h2.6z"/><path id="Fill-6" class="st0" d="M94.3 49.7l-10.4-8.4h-2.5z"/><path id="Fill-7" class="st0" d="M84.9 9.9L74.1 22.6h2.5z"/><path id="Fill-8" class="st0" d="M93 14l-13.4 8.6h2.8z"/><path id="Fill-9" class="st0" d="M67.8 22.6h2.3L69 .1z"/><path id="Fill-10" class="st0" d="M64.6 41.3L59.3 61l7.6-19.7z"/><path id="Fill-11" class="st0" d="M71.1 41.3L78.6 61l-5.3-19.7z"/><path id="Fill-12" class="st0" d="M84.8 52.9l-7.4-11.6h-2.3z"/><path id="Fill-13" class="st0" d="M45.8 48.3l10.8-7h-2.4z"/><path id="Fill-14" class="st0" d="M52.8 53.7l10.1-12.4h-2.3z"/><g id="Group-45" transform="translate(0 28.12)"><path id="Fill-15" d="M93.8-2.7c.4 0 .7.3.6.7l-.2.8c-.1.4-.5.7-.9.7h-3.6c-.3.1-.7.5-.7.9v1.1c0 .4.3.8.7.8H93c.4 0 .7.3.7.8v.8c0 .4-.3.8-.7.8h-3.2c-.4 0-.7.3-.7.8V7c0 .4.3.8.7.8h3.7c.4 0 .8.3.9.7l.2.8c.1.4-.2.7-.6.7h-7.2c-.4 0-.7-.3-.7-.8v-11c0-.4.3-.8.7-.8h7zM81.5.1l-.6.5s-.5.4-1.2-.3l-.2-.2c-.7-.6-1.6-.9-2.6-.9-1.6 0-2.5.5-2.5 1.3 0 .9.6 1.2 2.6 1.5 1.5.2 2.9.6 3.6 1 .2.1.5.4.9.7.6.7.9 1.4.9 2.4 0 1.1-.3 2-1 2.7-1 1-2.3 1.5-4.6 1.5s-3.7-.4-4.8-1.4c-.3-.2-.5-.5-.7-.8-.5-.7.2-1.2.2-1.2l.7-.7s.5-.4 1 .2l.6.6c.6.6 1.6 1 3 1 1.8 0 2.8-.5 2.8-1.4 0-.9-.9-1.4-2.9-1.6-2.3-.3-2.9-.4-4.2-1.6-.7-.6-.9-1.5-.9-2.3-.1-1.6.9-2.9 2.3-3.5.8-.3 1.8-.5 3-.5 1.9 0 3.4.5 4.4 1.4.2.1.3.3.4.4.5.6-.2 1.2-.2 1.2zM61.3 4.3c-.1.4.1.7.5.7h1.9c.4 0 .6-.3.5-.7L63 .7c-.1-.4-.4-.4-.5 0l-1.2 3.6zm2.6-7c.4 0 .9.3 1 .7l3.9 11.1c.1.4-.1.7-.5.7h-1.5c-.4 0-.9-.3-1-.7l-.3-1c-.1-.4-.6-.7-1-.7H61c-.4 0-.9.3-1 .7l-.3 1c-.1.4-.6.7-1 .7h-1.5c-.4 0-.6-.3-.5-.7L60.6-2c.1-.4.6-.7 1-.7h2.3zM53.8.9l-1 .6s-.7.4-1.3-.5c-.1-.2-.2-.3-.4-.4-.6-.6-1.3-.9-2.1-.9-1.9 0-3 1.5-3 4s1.1 4 3.1 4c.7 0 1.4-.3 2-.8.2-.2.3-.4.5-.6.7-.6 1.4-.3 1.4-.3l.8.6s.8.6.3 1.3c-.2.3-.3.4-.6.7-.3.3-.7.6-1.1.8-1 .6-1.9.8-3.2.8-3.9 0-6.3-2.5-6.3-6.6 0-3.9 2.4-6.6 5.9-6.6 1.9 0 3.3.5 4.4 1.5.3.3.5.6.7.9.6 1.1-.1 1.5-.1 1.5z"/><g id="Group-19"><defs><filter id="Adobe_OpacityMaskFilter" filterUnits="userSpaceOnUse" x="-.1" y="-2.7" width="10.6" height="12.5"><feColorMatrix values="1 0 0 0 0 0 1 0 0 0 0 0 1 0 0 0 0 0 1 0"/></filter></defs><mask maskUnits="userSpaceOnUse" x="-.1" y="-2.7" width="10.6" height="12.5" id="mask-2_2_"><g class="st1"><path id="path-1_2_" class="st2" d="M-.1-2.7V9.8h10.6V-2.7z"/></g></mask><path id="Fill-17" class="st3" d="M9.8-2.7c.4 0 .7.3.7.8v1.1c0 .4-.3.8-.7.8H7.4c-.4-.1-.7.3-.7.7v8.4c0 .4-.3.8-.7.8H4.4c-.4-.1-.7-.4-.7-.8V.7c0-.4-.3-.8-.7-.8H.6c-.4 0-.7-.3-.7-.8V-2c0-.4.3-.8.7-.8h9.2z"/></g><path id="Fill-20" class="st4" d="M15.4-2.7c.4 0 .7.3.7.8v3.3c0 .4.3.8.7.8h3.8c.4 0 .7-.3.7-.8v-3.3c0-.4.3-.8.7-.8h1.5c.4 0 .7.3.7.8v11c0 .4-.3.8-.7.8H22c-.4 0-.7-.3-.7-.8V5.3c0-.4-.3-.8-.7-.8h-3.9c-.4 0-.7.3-.7.8V9c0 .4-.3.8-.7.8h-1.5c-.4 0-.8-.3-.8-.8V-2c0-.4.3-.8.8-.8h1.6z"/><path id="Fill-22" class="st4" d="M36.1-2.7c.4 0 .7.3.6.7l-.2.8c-.1.4-.5.7-.9.7H32c-.4 0-.7.3-.7.8v1.1c0 .4.3.8.7.8h3.2c.5 0 .8.4.8.8v.8c0 .4-.3.8-.7.8h-3.2c-.4 0-.7.3-.7.8v1.5c0 .4.3.8.7.8h3.7c.4 0 .8.3.9.7l.2.8c.1.4-.2.7-.6.7h-7.2c-.4 0-.7-.3-.7-.8v-11c0-.4.3-.8.7-.8h7z"/><path id="Fill-24" class="st4" d="M110.3-2.7c.4 0 .7.3.6.7l-.2.8c-.1.4-.5.7-.9.7h-3.7c-.4 0-.7.3-.7.8v1.4c0 .4.3.8.7.8h3.2c.4 0 .7.3.7.8V4c0 .4-.3.8-.7.8h-3.1c-.4 0-.7.3-.7.8v3.5c0 .4-.3.8-.7.8h-1.5c-.4 0-.7-.3-.7-.8v-11c0-.4.3-.8.7-.8h7z"/><path id="Fill-26" class="st4" d="M117.2 3.6c0 2.4 1.2 3.9 3.1 3.9 2 0 3.2-1.5 3.2-4 0-2.4-1.2-3.9-3.1-3.9h-.1c-2 .1-3.1 1.6-3.1 4m7.6-4.9c1.3 1.3 1.9 2.8 1.9 4.9 0 2.1-.6 3.6-1.8 4.9-1.2 1.2-2.6 1.8-4.5 1.8s-3.4-.6-4.6-1.8c-1.2-1.2-1.8-2.8-1.8-4.8 0-2.5.9-4.4 2.7-5.6 1-.7 2.3-1.1 3.6-1.1h.1c1.9.1 3.2.6 4.4 1.7"/><path id="Fill-28" class="st4" d="M130.5-2.7h1.4c.8 0 .8.7.8.7v7.1c0 1.6.7 2.4 2.2 2.4 1.6 0 2.3-.8 2.3-2.5v-7s0-.7.7-.7h1.6c.7 0 .8.6.8.6v8c0 2.8-1.8 4.2-5.3 4.2-2 0-3.3-.4-4.2-1.4-.8-.7-1-1.5-1-3.1v-7.7c-.1.2 0-.6.7-.6"/><path id="Fill-30" class="st4" d="M147.1-2.7c.4 0 .9.3 1.1.7l3.5 6c.2.4.4.3.4-.1v-5.8c0-.4.3-.8.7-.8h1.4c.4 0 .7.3.7.8v11c0 .4-.3.8-.7.8h-1.8c-.4 0-.9-.3-1.1-.7l-3.8-6.5c-.2-.4-.4-.3-.4.1v6.3c0 .4-.3.8-.7.8H145c-.4 0-.7-.3-.7-.8v-11c0-.4.3-.8.7-.8h2.1z"/><path id="Fill-32" class="st4" d="M162.4.5v6.1s0 .7.7.7h1.6c2 0 3.1-1.2 3.1-3.6 0-2.4-1-3.7-2.8-3.7h-2c-.6-.1-.6.5-.6.5m-2.1-3.2h5.3c3.2 0 5.3 2.5 5.3 6.4 0 3.8-2 6.1-5.3 6.1h-5.4c-.9 0-.9-.9-.9-.9V-1.7c.1 0 0-1 1-1"/><path id="Fill-34" class="st4" d="M177.6 4.3c-.1.4.1.7.5.7h1.9c.4 0 .6-.3.5-.7L179.3.7c-.1-.4-.4-.4-.5 0l-1.2 3.6zm2.6-7c.4 0 .9.3 1 .7l3.9 11.1c.1.4-.1.7-.5.7h-1.5c-.4 0-.9-.3-1-.7l-.3-1c-.1-.4-.6-.7-1-.7h-3.5c-.4 0-.9.3-1 .7l-.3 1c-.1.4-.6.7-1 .7h-1.5c-.4 0-.6-.3-.5-.7L176.9-2c.1-.4.6-.7 1-.7h2.3z"/><path id="Fill-36" class="st4" d="M196.2-2.7c.4 0 .7.3.7.8v1.1c0 .4-.3.8-.7.8h-2.3c-.4 0-.7.3-.7.8v8.4c0 .4-.3.8-.7.8H191c-.4 0-.7-.3-.7-.8V.7c0-.4-.3-.8-.7-.8h-2.3c-.4 0-.7-.3-.7-.8V-2c0-.4.3-.8.7-.8h8.9z"/><path id="Fill-38" class="st4" d="M202.6-2.7c.4 0 .7.3.7.8v11c0 .4-.3.8-.7.8h-1.5c-.4 0-.7-.3-.7-.8v-11c0-.4.3-.8.7-.8h1.5z"/><path id="Fill-40" class="st4" d="M210.3 3.6c0 2.4 1.2 3.9 3.1 3.9 2 0 3.2-1.5 3.2-4 0-2.4-1.2-3.9-3.1-3.9h-.1c-1.9.1-3.1 1.6-3.1 4m7.7-4.9c1.3 1.3 1.9 2.8 1.9 4.9 0 2.1-.6 3.6-1.8 4.9-1.2 1.2-2.6 1.8-4.5 1.8s-3.4-.6-4.6-1.8c-1.2-1.2-1.8-2.8-1.8-4.8 0-2.5.9-4.4 2.7-5.6 1-.7 2.3-1.1 3.6-1.1h.1c1.9.1 3.2.6 4.4 1.7"/><g id="Group-44" transform="translate(252.514)"><defs><filter id="Adobe_OpacityMaskFilter_1_" filterUnits="userSpaceOnUse" x="-29.6" y="-2.7" width="10.7" height="12.5"><feColorMatrix values="1 0 0 0 0 0 1 0 0 0 0 0 1 0 0 0 0 0 1 0"/></filter></defs><mask maskUnits="userSpaceOnUse" x="-29.6" y="-2.7" width="10.7" height="12.5" id="mask-4_2_"><g class="st5"><path id="path-3_2_" class="st2" d="M-18.9 9.8V-2.7h-10.7V9.8z"/></g></mask><path id="Fill-42" class="st6" d="M-26.8-2.7c.6 0 .8.2 1.1.7l3.5 6c.2.4.4.3.4-.1v-5.8c0-.4.3-.8.7-.8h1.4c.4 0 .7.3.7.8v11c0 .4-.3.8-.7.8h-1.8c-.4 0-.9-.3-1.1-.7l-3.8-6.5c-.2-.4-.4-.3-.4.1v6.3c0 .4-.3.8-.7.8h-1.4c-.4 0-.7-.3-.7-.8v-11c0-.4.3-.8.7-.8h2.1z"/></g></g></g></g></g></svg>